<?xml version="1.0" standalone="no"?>
<!DOCTYPE svg PUBLIC "-//W3C//DTD SVG 20010904//EN"
 "http://www.w3.org/TR/2001/REC-SVG-20010904/DTD/svg10.dtd">
<svg version="1.0" xmlns="http://www.w3.org/2000/svg"
 width="500.000000pt" height="500.000000pt" viewBox="0 0 500.000000 500.000000"
 preserveAspectRatio="xMidYMid meet">
<metadata>
Created by potrace 1.11, written by Peter Selinger 2001-2013
</metadata>
<g transform="translate(0.000000,500.000000) scale(0.100000,-0.100000)"
fill="#000000" stroke="none">
<path d="M0 2500 l0 -2500 2500 0 2500 0 0 2500 0 2500 -2500 0 -2500 0 0
-2500z m3842 419 c131 -28 253 -124 309 -243 82 -174 50 -356 -85 -492 -66
-66 -144 -108 -227 -124 -71 -14 -2618 -13 -2690 0 -124 23 -247 115 -307 231
-131 251 12 555 293 625 68 17 2627 20 2707 3z"/>
<path d="M1150 2841 c-98 -19 -199 -101 -247 -199 -25 -50 -28 -68 -28 -152 0
-84 3 -102 28 -152 36 -73 101 -139 175 -175 l57 -28 1355 0 1355 0 57 27 c81
37 149 105 184 181 24 53 28 74 28 147 0 71 -5 95 -28 147 -34 76 -103 143
-184 181 l-57 27 -1330 1 c-731 1 -1346 -1 -1365 -5z m1520 -182 c0 -5 -14
-67 -30 -137 -28 -116 -29 -128 -14 -139 20 -15 10 -53 -14 -53 -31 0 -62 30
-62 58 0 24 24 133 51 234 9 34 21 44 57 47 6 0 12 -4 12 -10z m135 -23 c0
-32 -23 -53 -49 -43 -19 7 -21 48 -4 65 7 7 22 11 33 10 15 -2 20 -11 20 -32z
m-625 -13 c-1 -42 -13 -53 -60 -53 l-48 0 -29 -117 -29 -118 -32 -3 c-18 -2
-32 0 -32 5 0 4 13 59 29 121 l29 112 -44 0 c-46 0 -47 1 -38 38 6 21 10 22
130 22 68 0 124 -3 124 -7z m134 -71 c12 -19 -20 -47 -54 -47 l-35 0 -21 -85
c-20 -83 -21 -85 -52 -88 -18 -2 -32 0 -32 3 0 4 9 41 19 83 10 43 22 89 25
104 4 17 14 28 29 31 39 8 116 7 121 -1z m211 -4 c4 -3 -1 -34 -10 -69 -9 -35
-15 -81 -13 -102 3 -32 0 -39 -19 -43 -13 -4 -29 -1 -36 4 -8 7 -18 7 -27 2
-28 -18 -70 -11 -97 16 -22 22 -25 32 -21 75 5 52 39 100 83 120 21 9 130 7
140 -3z m260 -19 c-4 -17 -17 -67 -29 -112 -22 -80 -23 -82 -55 -85 -28 -3
-32 -1 -27 15 3 10 14 56 26 103 28 115 25 110 60 110 30 0 31 -2 25 -31z
m230 19 c4 -3 -1 -34 -10 -69 -9 -35 -15 -81 -13 -102 3 -32 0 -39 -19 -43
-13 -4 -29 -1 -36 4 -8 7 -18 7 -27 2 -28 -18 -70 -11 -97 16 -22 22 -25 32
-21 75 5 52 39 100 83 120 21 9 130 7 140 -3z"/>
<path d="M2389 2481 c-31 -32 -38 -71 -14 -91 28 -23 52 -3 68 60 14 58 14 60
-5 60 -11 0 -33 -13 -49 -29z"/>
<path d="M2879 2481 c-31 -32 -38 -71 -14 -91 28 -23 52 -3 68 60 14 58 14 60
-5 60 -11 0 -33 -13 -49 -29z"/>
</g>
</svg>
